<svg xmlns="http://www.w3.org/2000/svg" viewBox="0 0 512 512"><path d="M87.9 166.3H77.3v19h10.1c4 0 6.9-.8 8.8-2.3 1.8-1.5 2.8-3.9 2.8-7 0-3-.9-5.4-2.7-7.1-1.9-1.8-4.7-2.6-8.4-2.6zM211.3 175.9c0-3-.9-5.4-2.7-7.1-1.8-1.7-4.6-2.6-8.3-2.6h-10.6v19h10.1c4 0 6.9-.8 8.8-2.3 1.7-1.4 2.7-3.8 2.7-7z"/><path d="M254.6 188.2c0-28.5-21.6-51.6-48.3-51.6H36.8v103.3h169.5c26.7 0 48.3-23.2 48.3-51.7zm-142.7 30h-10.3c-1.1-.9-1.8-2.3-2.1-4.2-.3-1.9-.5-3.8-.5-5.8v-4.8c0-3.1-.9-5.5-2.7-7.3-1.8-1.8-4.2-2.7-7.2-2.7H77.3v24.9h-10v-60h20.6c6.7 0 11.8 1.5 15.5 4.5 3.7 3 5.5 7.3 5.5 12.9 0 3.1-.8 5.8-2.4 8-1.6 2.2-3.9 4-7 5.4 3.4 1.1 5.8 2.8 7.3 5.2 1.5 2.4 2.2 5.4 2.2 9v5c0 1.8.2 3.5.7 5.2.4 1.7 1.2 3 2.2 3.8v.9zm47.4 0-4.6-14h-21.3l-4.6 14h-10.3l20.9-60h9.5l20.7 60h-10.3zm30.3-24.9v24.9h-10v-60h20.6c6.7 0 11.8 1.5 15.5 4.5 3.7 3 5.5 7.3 5.5 12.9 0 3.1-.8 5.8-2.4 8-1.6 2.2-3.9 4-7 5.4 3.4 1.1 5.8 2.8 7.3 5.2 1.5 2.4 2.2 5.4 2.2 9v5c0 1.8.2 3.5.7 5.2.4 1.7 1.2 3 2.2 3.8v.9h-10.3c-1.1-.9-1.8-2.3-2.1-4.2-.3-1.9-.5-3.8-.5-5.8v-4.8c0-3.1-.9-5.5-2.7-7.3-1.8-1.8-4.2-2.7-7.2-2.7h-11.8z"/><path d="m144.1 172.2-7.9 23.6H152l-7.7-23.6zM373.4 35.5h70.7v9.1h-70.7zM444 12.6c0-3.6-2.9-6.6-6.6-6.6H380c-3.6 0-6.6 2.9-6.6 6.6v13.8H444V12.6zM474.5 110.6c-1.1-2.3-3.4-3.7-5.9-3.7H444V53.6h-70.7v53.3h-24.5c-2.5 0-4.8 1.4-5.9 3.7-1.1 2.3-.8 5 .7 6.9l59.9 76.9c1.2 1.6 3.2 2.5 5.2 2.5s4-.9 5.2-2.5l59.9-76.9c1.5-2 1.8-4.7.7-6.9z"/><path d="m392.5 203-59.9-76.9c-4.8-6.2-5.7-14.7-2.2-21.7 3.4-7 10.7-11.5 18.5-11.5h10.6V40.2h-274c-26.9 0-48.7 21.8-48.7 48.7v33.8h169.5c34.4 0 62.3 29.4 62.3 65.6 0 36.2-28 65.6-62.3 65.6H36.8v203.4c0 26.9 21.8 48.7 48.7 48.7H360c26.9 0 48.7-21.8 48.7-48.7V211c-6.4 0-12.3-2.9-16.2-8z"/></svg>